<?xml version="1.0" encoding="UTF-8"?><svg id="Graphic_element" xmlns="http://www.w3.org/2000/svg" viewBox="0 0 1200 1200"><path d="M416.52,422.67c-7.62-39.59-16.05-75.72-5.23-112.68,1.1-3.76-.69-8.85-2.31-12.85-12.75-31.54-4.59-59.9,12.95-86.77,16.85-25.81,39.71-44.66,68.32-56.02,34.93-13.87,70.4-26.25,107.83-31.54,31.28-4.42,59.61,2.39,82.63,24.98,7.84,7.69,15.86,11.45,27.04,10.72,15.86-1.04,34.08,2.72,41.05,15.23,4.77,8.57,11.95,16.11,15.34,24.88,6.93,17.94,18.59,33.09,26.99,50.14,9.62,19.53,5.49,35.51-2.81,52.64-17.65,36.41-16.55,76.25-23.31,115.96,24.25-9.22,29.06-6.21,28.27,17.79-1.17,35.04-15.18,66.68-28.18,98.45-1.3,3.18-5.53,7.89-7.74,7.56-19.25-2.93-16.7,11.26-19.37,22.5-2.62,11.07-5.08,23.15-11.33,32.22-22.16,32.15-14.37,67.75-11.66,101.78,2.14,26.83,23.71,42.76,47.31,53.3,52.29,23.34,104.22,47.68,157.53,68.46,43.63,17.01,63.24,153.54,67.74,197.9,1.72,16.97-3.07,24.18-21.43,24.14-243.86-.45-487.71-.33-731.57-.47-22.58-.01-23.42-2.42-22.01-24.34,2.98-46.1,24.07-181.28,68.73-198.23,48.68-18.48,95.48-42.04,142.57-64.52,33.87-16.17,52.31-42.02,50.4-81.95-1.35-28.16-.34-55.61-18.13-80.17-8.13-11.24-10.16-25.99-12.59-39.79-1.3-7.4-2.83-12.2-12.03-9.16-8.56,2.83-13.3-3.14-16.27-9.72-14.45-32.01-26.08-64.93-29.01-100.26-.64-7.68,0-15.86,7.93-20.1,8.87-4.75,13.85,2.81,22.37,9.94Z" style="fill:#000; stroke-width:0px;"/></svg>