<!DOCTYPE svg PUBLIC "-//W3C//DTD SVG 1.1//EN" "http://www.w3.org/Graphics/SVG/1.1/DTD/svg11.dtd">
<!-- Uploaded to: SVG Repo, www.svgrepo.com, Transformed by: SVG Repo Mixer Tools -->
<svg fill="#000000" version="1.1" id="Capa_1" xmlns="http://www.w3.org/2000/svg" xmlns:xlink="http://www.w3.org/1999/xlink" width="800px" height="800px" viewBox="-3.37 -3.37 40.44 40.44" xml:space="preserve">
<g id="SVGRepo_bgCarrier" stroke-width="0">
<path transform="translate(-3.37, -3.37), scale(2.5275)" fill="#fdb838" d="M9.166.33a2.25 2.25 0 00-2.332 0l-5.25 3.182A2.25 2.25 0 00.5 5.436v5.128a2.25 2.25 0 001.084 1.924l5.25 3.182a2.25 2.25 0 002.332 0l5.25-3.182a2.25 2.25 0 001.084-1.924V5.436a2.25 2.25 0 00-1.084-1.924L9.166.33z" strokewidth="0"/>
</g>
<g id="SVGRepo_tracerCarrier" stroke-linecap="round" stroke-linejoin="round" stroke="#CCCCCC" stroke-width="0.0674"/>
<g id="SVGRepo_iconCarrier"> <g> <g> <path d="M33.667,18.051c-2.646-6.921-9.404-11.57-16.816-11.57c-7.411,0-14.169,4.649-16.817,11.569 c-0.099,0.258,0.03,0.547,0.288,0.646c0.257,0.1,0.547-0.029,0.646-0.287c0.263-0.688,0.578-1.348,0.924-1.984l3.884,2.238 l0.499-0.867L2.396,15.56c0.609-0.982,1.312-1.896,2.099-2.727l3.164,3.162l0.707-0.707L5.2,12.125 c0.838-0.786,1.758-1.48,2.735-2.084l2.231,3.864l0.866-0.5L8.802,9.541c1.008-0.544,2.067-0.993,3.171-1.328l1.16,4.324 l0.492-0.133c-4.331,1.154-7.738,4.573-8.871,8.914c-0.099,0.382-0.606,0.769-1.201,1.163h4.276 c-0.631-0.954-0.723-2.215-0.112-3.273c0.858-1.488,2.765-2,4.255-1.141c1.489,0.86,2,2.768,1.14,4.256 c-0.033,0.059-0.078,0.104-0.114,0.158h7.709c-0.037-0.055-0.081-0.102-0.114-0.158c-0.861-1.488-0.353-3.396,1.139-4.256 c1.489-0.857,3.396-0.349,4.255,1.141c0.61,1.06,0.519,2.319-0.113,3.273h4.203c-0.555-0.365-1.018-0.725-1.106-1.078 c-0.856-3.384-3.094-6.218-6.076-7.867l0.64,0.369l2.23-3.866c0.977,0.604,1.896,1.296,2.734,2.083l-3.164,3.166l0.707,0.707 l3.163-3.165c0.788,0.829,1.489,1.744,2.101,2.727l-3.879,2.241l0.5,0.864l3.883-2.244c0.347,0.64,0.663,1.3,0.927,1.99 c0.076,0.199,0.266,0.321,0.467,0.321c0.061,0,0.12-0.011,0.179-0.032C33.638,18.598,33.767,18.309,33.667,18.051z M12.937,7.947 c1.107-0.266,2.252-0.411,3.414-0.446v4.48h0.5h0.5v-4.48c1.16,0.035,2.303,0.18,3.41,0.445l-1.159,4.332l0.352,0.094 c-0.993-0.253-2.031-0.391-3.103-0.391c-1.072,0-2.112,0.137-3.105,0.391l0.354-0.095L12.937,7.947z M16.851,20.163 c-1.721,0-3.115-1.395-3.115-3.114c0-1.72,1.395-3.114,3.115-3.114c1.72,0,3.115,1.395,3.115,3.114 C19.964,18.769,18.57,20.163,16.851,20.163z M22.665,13.405l0.224,0.129c-0.869-0.48-1.804-0.857-2.783-1.121l0.461,0.123 l1.157-4.324c1.104,0.334,2.165,0.782,3.173,1.327L22.665,13.405z"/> <path d="M16.851,25.543c3.5-1,7.188-2.625,7.188-2.625H8.601c0,0,5.963,0.375,8.213,1.25c1.125,0.438-2.416,1.207-3.463,2.125 c-1.047,0.916,4.75,1.375,8.024,0.312C16.013,26.606,15.54,25.917,16.851,25.543z"/> </g> </g> </g>
</svg>